<svg id="100" xmlns="http://www.w3.org/2000/svg" viewBox="0 0 256 144" width="512" height="288"><rect x="0" y="0" width="256" height="144" fill="rgb(59, 30, 20)"/><path d="M211,90L88,172L38,29Z" fill="rgb(173, 130, 73)" fill-opacity="0.76"/><path d="M29,28L231,114L209,18Z" fill="rgb(71, 88, 95)" fill-opacity="0.60"/><path d="M214,37L175,17L217,74Z" fill="rgb(253, 191, 116)" fill-opacity="0.55"/><path d="M73,54L30,74L132,84Z" fill="rgb(255, 169, 37)" fill-opacity="0.50"/><path d="M181,118L149,80L158,128Z" fill="rgb(200, 154, 90)" fill-opacity="0.54"/><path d="M137,134L188,88L32,109Z" fill="rgb(240, 211, 103)" fill-opacity="0.29"/><path d="M17,95L54,54L78,135Z" fill="rgb(126, 66, 46)" fill-opacity="0.77"/><path d="M186,25L119,13L190,37Z" fill="rgb(235, 169, 98)" fill-opacity="0.44"/><path d="M63,129L152,195L111,113Z" fill="rgb(10, 0, 0)" fill-opacity="0.34"/><path d="M127,138L118,146L146,141Z" fill="rgb(5, 0, 0)" fill-opacity="0.50"/><path d="M111,99L52,103L70,92Z" fill="rgb(32, 22, 25)" fill-opacity="0.70"/><path d="M238,65L225,32L184,87Z" fill="rgb(213, 150, 98)" fill-opacity="0.31"/><path d="M84,-103L124,18L30,61Z" fill="rgb(99, 51, 30)" fill-opacity="0.77"/><path d="M198,43L100,12L150,76Z" fill="rgb(0, 47, 74)" fill-opacity="0.80"/><path d="M153,141L147,118L123,123Z" fill="rgb(76, 43, 11)" fill-opacity="0.46"/><path d="M246,51L199,79L182,166Z" fill="rgb(83, 51, 42)" fill-opacity="0.93"/><path d="M98,131L135,131L81,105Z" fill="rgb(202, 191, 75)" fill-opacity="0.37"/><path d="M53,87L52,112L65,85Z" fill="rgb(202, 117, 85)" fill-opacity="0.48"/><path d="M195,97L198,70L206,69Z" fill="rgb(243, 176, 112)" fill-opacity="0.45"/><path d="M164,72L207,65L182,35Z" fill="rgb(0, 50, 75)" fill-opacity="0.73"/><path d="M91,141L124,141L84,121Z" fill="rgb(53, 22, 7)" fill-opacity="0.59"/><path d="M102,126L124,136L146,128Z" fill="rgb(202, 144, 106)" fill-opacity="0.44"/><path d="M114,81L63,76L62,56Z" fill="rgb(255, 170, 33)" fill-opacity="0.86"/><path d="M191,92L169,104L195,71Z" fill="rgb(220, 169, 101)" fill-opacity="0.51"/><path d="M193,-1L191,29L218,28Z" fill="rgb(93, 37, 7)" fill-opacity="0.47"/><path d="M181,99L157,65L137,80Z" fill="rgb(137, 80, 48)" fill-opacity="0.61"/><path d="M199,88L173,83L165,103Z" fill="rgb(208, 163, 91)" fill-opacity="0.48"/><path d="M79,88L47,81L127,82Z" fill="rgb(42, 0, 30)" fill-opacity="0.41"/><path d="M98,71L69,54L50,69Z" fill="rgb(248, 154, 77)" fill-opacity="0.58"/><path d="M210,59L181,30L196,32Z" fill="rgb(209, 178, 130)" fill-opacity="0.57"/><path d="M83,154L113,145L18,124Z" fill="rgb(95, 62, 60)" fill-opacity="0.64"/><path d="M86,30L150,15L109,16Z" fill="rgb(141, 83, 51)" fill-opacity="0.54"/><path d="M141,73L89,31L162,25Z" fill="rgb(0, 52, 88)" fill-opacity="0.44"/><path d="M203,95L170,96L183,144Z" fill="rgb(53, 28, 31)" fill-opacity="0.38"/><path d="M218,75L264,50L209,26Z" fill="rgb(89, 60, 49)" fill-opacity="0.51"/><path d="M64,99L87,93L53,118Z" fill="rgb(37, 22, 22)" fill-opacity="0.51"/><path d="M126,135L174,144L106,149Z" fill="rgb(49, 12, 6)" fill-opacity="0.56"/><path d="M141,102L104,114L85,101Z" fill="rgb(222, 182, 130)" fill-opacity="0.63"/><path d="M52,44L76,62L99,25Z" fill="rgb(163, 93, 72)" fill-opacity="0.47"/><path d="M63,116L82,99L97,124Z" fill="rgb(202, 199, 85)" fill-opacity="0.44"/><path d="M233,46L222,5L290,-12Z" fill="rgb(29, 9, 3)" fill-opacity="0.67"/><path d="M134,143L136,183L150,123Z" fill="rgb(58, 27, 18)" fill-opacity="0.70"/><path d="M141,12L110,20L206,28Z" fill="rgb(132, 89, 56)" fill-opacity="0.58"/><path d="M294,95L207,84L227,216Z" fill="rgb(55, 30, 28)" fill-opacity="0.62"/><path d="M81,89L87,95L121,85Z" fill="rgb(219, 191, 110)" fill-opacity="0.50"/><path d="M173,31L178,26L198,42Z" fill="rgb(205, 160, 105)" fill-opacity="0.61"/><path d="M155,93L141,91L161,79Z" fill="rgb(222, 168, 98)" fill-opacity="0.42"/><path d="M9,151L-112,80L15,93Z" fill="rgb(35, 12, 12)" fill-opacity="0.75"/><path d="M220,52L200,51L204,63Z" fill="rgb(254, 210, 140)" fill-opacity="0.30"/><path d="M159,77L149,82L154,70Z" fill="rgb(212, 122, 65)" fill-opacity="0.49"/><path d="M222,43L190,21L194,-87Z" fill="rgb(69, 34, 18)" fill-opacity="0.97"/><path d="M123,86L149,83L92,80Z" fill="rgb(95, 52, 46)" fill-opacity="0.60"/><path d="M220,37L219,28L230,38Z" fill="rgb(173, 131, 84)" fill-opacity="0.50"/><path d="M69,120L14,129L19,82Z" fill="rgb(88, 38, 28)" fill-opacity="0.64"/><path d="M177,27L162,1L192,1Z" fill="rgb(47, 22, 10)" fill-opacity="0.56"/><path d="M165,98L129,90L167,104Z" fill="rgb(141, 112, 28)" fill-opacity="0.48"/><path d="M55,95L75,91L61,70Z" fill="rgb(155, 72, 63)" fill-opacity="0.53"/><path d="M147,130L154,108L172,112Z" fill="rgb(133, 90, 39)" fill-opacity="0.55"/><path d="M168,129L199,160L179,120Z" fill="rgb(96, 62, 57)" fill-opacity="0.54"/><path d="M171,93L157,67L162,91Z" fill="rgb(84, 27, 16)" fill-opacity="0.49"/><path d="M68,129L53,123L70,111Z" fill="rgb(127, 83, 65)" fill-opacity="0.53"/><path d="M170,131L165,120L176,86Z" fill="rgb(221, 177, 106)" fill-opacity="0.39"/><path d="M54,72L44,79L45,64Z" fill="rgb(199, 126, 95)" fill-opacity="0.46"/><path d="M222,116L214,101L231,100Z" fill="rgb(96, 59, 50)" fill-opacity="0.67"/><path d="M82,115L74,99L65,124Z" fill="rgb(171, 150, 75)" fill-opacity="0.51"/><path d="M213,65L264,45L220,72Z" fill="rgb(133, 107, 100)" fill-opacity="0.43"/><path d="M87,114L68,104L66,113Z" fill="rgb(152, 151, 36)" fill-opacity="0.64"/><path d="M117,79L48,65L76,79Z" fill="rgb(255, 186, 0)" fill-opacity="0.43"/><path d="M27,80L42,72L38,64Z" fill="rgb(111, 53, 37)" fill-opacity="0.77"/><path d="M148,22L198,42L99,29Z" fill="rgb(0, 35, 59)" fill-opacity="0.62"/><path d="M145,74L189,68L80,42Z" fill="rgb(56, 82, 99)" fill-opacity="0.50"/><path d="M90,113L119,116L96,124Z" fill="rgb(102, 91, 8)" fill-opacity="0.51"/><path d="M88,119L68,118L81,114Z" fill="rgb(233, 195, 147)" fill-opacity="0.57"/><path d="M222,78L222,75L249,67Z" fill="rgb(4, 0, 0)" fill-opacity="0.49"/><path d="M137,84L179,96L133,91Z" fill="rgb(233, 201, 116)" fill-opacity="0.33"/><path d="M59,47L-47,60L58,-30Z" fill="rgb(80, 35, 11)" fill-opacity="0.57"/><path d="M162,91L162,83L153,81Z" fill="rgb(92, 25, 9)" fill-opacity="0.54"/><path d="M81,87L48,94L104,89Z" fill="rgb(226, 182, 144)" fill-opacity="0.31"/><path d="M30,45L40,67L10,34Z" fill="rgb(25, 0, 0)" fill-opacity="0.53"/><path d="M59,58L125,77L72,47Z" fill="rgb(204, 117, 97)" fill-opacity="0.36"/><path d="M195,133L205,125L225,130Z" fill="rgb(93, 65, 64)" fill-opacity="0.53"/><path d="M72,139L82,120L100,127Z" fill="rgb(62, 39, 7)" fill-opacity="0.49"/><path d="M153,121L142,118L150,89Z" fill="rgb(210, 164, 105)" fill-opacity="0.45"/><path d="M-29,72L28,47L18,84Z" fill="rgb(41, 5, 0)" fill-opacity="0.57"/><path d="M223,46L200,25L187,23Z" fill="rgb(163, 120, 80)" fill-opacity="0.64"/><path d="M205,99L192,74L194,103Z" fill="rgb(111, 65, 47)" fill-opacity="0.59"/><path d="M227,126L246,125L237,112Z" fill="rgb(91, 64, 60)" fill-opacity="0.48"/><path d="M185,121L170,104L199,117Z" fill="rgb(32, 17, 14)" fill-opacity="0.53"/><path d="M48,65L47,46L50,48Z" fill="rgb(55, 11, 0)" fill-opacity="0.57"/><path d="M193,38L146,59L201,56Z" fill="rgb(0, 47, 71)" fill-opacity="0.82"/><path d="M182,119L197,103L189,126Z" fill="rgb(0, 0, 0)" fill-opacity="0.43"/><path d="M61,96L52,47L40,89Z" fill="rgb(158, 82, 57)" fill-opacity="0.40"/><path d="M170,20L177,34L162,26Z" fill="rgb(211, 166, 105)" fill-opacity="0.37"/><path d="M117,119L131,125L99,121Z" fill="rgb(211, 168, 93)" fill-opacity="0.54"/><path d="M172,121L180,108L166,120Z" fill="rgb(191, 153, 94)" fill-opacity="0.63"/><path d="M273,42L218,62L245,17Z" fill="rgb(61, 34, 27)" fill-opacity="0.65"/><path d="M72,25L88,12L59,15Z" fill="rgb(124, 76, 54)" fill-opacity="0.50"/><path d="M46,66L61,61L69,45Z" fill="rgb(118, 52, 34)" fill-opacity="0.47"/><path d="M200,128L217,121L214,100Z" fill="rgb(21, 2, 0)" fill-opacity="0.42"/><path d="M223,28L220,29L226,22Z" fill="rgb(194, 151, 111)" fill-opacity="0.46"/></svg>
