<svg xmlns="http://www.w3.org/2000/svg" viewBox="0 0 256 144" width="512" height="288"><rect x="0" y="0" width="256" height="144" fill="rgb(59, 30, 20)"/><path d="M150,19L203,23L233,82Z" fill="rgb(221, 206, 158)" fill-opacity="0.41"/><path d="M215,75L34,40L96,186Z" fill="rgb(228, 182, 104)" fill-opacity="0.49"/><path d="M74,124L68,143L196,149Z" fill="rgb(42, 10, 10)" fill-opacity="0.57"/><path d="M52,67L166,132L66,-7Z" fill="rgb(249, 171, 86)" fill-opacity="0.27"/><path d="M243,63L194,20L201,75Z" fill="rgb(222, 177, 128)" fill-opacity="0.29"/><path d="M237,83L81,60L132,0Z" fill="rgb(0, 71, 112)" fill-opacity="0.48"/><path d="M55,127L140,104L87,99Z" fill="rgb(255, 235, 138)" fill-opacity="0.37"/><path d="M59,94L63,111L87,93Z" fill="rgb(26, 17, 26)" fill-opacity="0.66"/><path d="M199,43L154,25L174,85Z" fill="rgb(0, 46, 71)" fill-opacity="0.73"/><path d="M17,79L46,123L104,44Z" fill="rgb(255, 128, 60)" fill-opacity="0.26"/><path d="M85,27L129,12L79,59Z" fill="rgb(94, 79, 81)" fill-opacity="0.62"/></svg>
