

<svg id ="500" xmlns="http://www.w3.org/2000/svg" viewBox="0 0 256 144" width="512" height="288"><rect x="0" y="0" width="256" height="144" fill="rgb(59, 30, 20)"/><path d="M96,184L34,36L212,81Z" fill="rgb(225, 176, 99)" fill-opacity="0.51"/><path d="M160,20L208,25L221,75Z" fill="rgb(172, 146, 107)" fill-opacity="0.72"/><path d="M78,54L124,83L29,74Z" fill="rgb(243, 150, 41)" fill-opacity="0.70"/><path d="M107,81L20,73L43,123Z" fill="rgb(115, 62, 46)" fill-opacity="0.83"/><path d="M166,93L208,42L54,15Z" fill="rgb(13, 73, 108)" fill-opacity="0.53"/><path d="M211,41L124,17L144,11Z" fill="rgb(255, 200, 131)" fill-opacity="0.30"/><path d="M192,72L200,81L217,58Z" fill="rgb(251, 216, 159)" fill-opacity="0.44"/><path d="M96,-24L113,64L26,38Z" fill="rgb(110, 66, 50)" fill-opacity="0.63"/><path d="M184,151L125,308L39,111Z" fill="rgb(80, 45, 31)" fill-opacity="0.93"/><path d="M220,72L200,26L189,36Z" fill="rgb(215, 172, 118)" fill-opacity="0.66"/><path d="M79,102L142,104L58,126Z" fill="rgb(251, 230, 132)" fill-opacity="0.41"/><path d="M61,104L106,98L67,92Z" fill="rgb(1, 7, 18)" fill-opacity="0.57"/><path d="M221,24L200,75L240,68Z" fill="rgb(192, 148, 111)" fill-opacity="0.29"/><path d="M173,90L177,129L74,104Z" fill="rgb(240, 194, 111)" fill-opacity="0.32"/><path d="M206,65L191,36L177,85Z" fill="rgb(14, 59, 81)" fill-opacity="0.66"/><path d="M30,92L-68,-42L73,16Z" fill="rgb(76, 31, 10)" fill-opacity="0.59"/><path d="M143,74L167,97L178,73Z" fill="rgb(167, 68, 23)" fill-opacity="0.46"/><path d="M231,59L181,192L172,105Z" fill="rgb(86, 55, 50)" fill-opacity="0.58"/><path d="M126,143L225,205L163,122Z" fill="rgb(42, 11, 4)" fill-opacity="0.60"/><path d="M196,114L185,126L171,102Z" fill="rgb(11, 0, 0)" fill-opacity="0.44"/><path d="M58,74L66,53L109,81Z" fill="rgb(255, 174, 38)" fill-opacity="0.71"/><path d="M192,80L193,102L173,91Z" fill="rgb(232, 192, 137)" fill-opacity="0.36"/><path d="M150,85L178,97L117,87Z" fill="rgb(197, 161, 88)" fill-opacity="0.67"/><path d="M130,87L146,83L98,81Z" fill="rgb(81, 44, 47)" fill-opacity="0.54"/><path d="M87,122L90,104L132,140Z" fill="rgb(156, 137, 54)" fill-opacity="0.77"/><path d="M120,109L131,134L105,130Z" fill="rgb(196, 150, 95)" fill-opacity="0.64"/><path d="M26,91L63,93L54,49Z" fill="rgb(137, 69, 50)" fill-opacity="0.68"/><path d="M76,40L139,80L165,9Z" fill="rgb(0, 68, 122)" fill-opacity="0.28"/><path d="M72,39L129,16L102,19Z" fill="rgb(153, 94, 61)" fill-opacity="0.65"/><path d="M140,69L201,45L148,21Z" fill="rgb(0, 42, 76)" fill-opacity="0.50"/><path d="M134,87L89,86L58,94Z" fill="rgb(238, 221, 136)" fill-opacity="0.37"/><path d="M49,57L132,82L71,15Z" fill="rgb(189, 112, 102)" fill-opacity="0.25"/><path d="M74,118L84,131L105,129Z" fill="rgb(61, 56, 8)" fill-opacity="0.56"/><path d="M53,99L47,120L89,134Z" fill="rgb(130, 73, 55)" fill-opacity="0.58"/><path d="M20,105L-6,86L-8,111Z" fill="rgb(15, 0, 0)" fill-opacity="0.49"/><path d="M253,55L211,72L273,35Z" fill="rgb(112, 89, 90)" fill-opacity="0.55"/><path d="M154,93L162,94L153,87Z" fill="rgb(255, 214, 153)" fill-opacity="0.50"/><path d="M236,50L146,-30L200,29Z" fill="rgb(64, 30, 15)" fill-opacity="0.79"/><path d="M20,87L27,125L49,91Z" fill="rgb(105, 44, 29)" fill-opacity="0.54"/><path d="M164,95L177,115L165,131Z" fill="rgb(202, 155, 91)" fill-opacity="0.44"/><path d="M93,95L124,80L76,94Z" fill="rgb(189, 157, 87)" fill-opacity="0.44"/><path d="M182,21L173,31L162,14Z" fill="rgb(111, 71, 40)" fill-opacity="0.56"/><path d="M122,15L64,38L82,-1Z" fill="rgb(79, 38, 19)" fill-opacity="0.61"/><path d="M161,120L141,132L171,102Z" fill="rgb(110, 66, 24)" fill-opacity="0.52"/><path d="M69,63L50,94L57,106Z" fill="rgb(182, 101, 59)" fill-opacity="0.60"/><path d="M159,92L161,74L166,90Z" fill="rgb(79, 15, 1)" fill-opacity="0.54"/><path d="M209,104L177,99L203,88Z" fill="rgb(103, 65, 52)" fill-opacity="0.81"/><path d="M135,158L151,127L143,127Z" fill="rgb(55, 27, 14)" fill-opacity="0.76"/><path d="M191,72L193,90L187,95Z" fill="rgb(203, 162, 135)" fill-opacity="0.48"/><path d="M214,112L267,141L224,91Z" fill="rgb(73, 47, 46)" fill-opacity="0.58"/><path d="M289,-64L214,23L283,35Z" fill="rgb(24, 5, 0)" fill-opacity="0.62"/><path d="M-49,98L15,49L31,73Z" fill="rgb(33, 0, 0)" fill-opacity="0.47"/><path d="M155,106L168,112L179,92Z" fill="rgb(228, 179, 118)" fill-opacity="0.47"/><path d="M180,126L178,115L169,125Z" fill="rgb(44, 16, 15)" fill-opacity="0.55"/><path d="M25,123L62,126L86,139Z" fill="rgb(21, 0, 0)" fill-opacity="0.52"/><path d="M151,73L155,88L154,71Z" fill="rgb(252, 156, 92)" fill-opacity="0.51"/><path d="M192,121L195,103L183,122Z" fill="rgb(0, 0, 0)" fill-opacity="0.56"/><path d="M67,76L53,68L52,86Z" fill="rgb(124, 49, 34)" fill-opacity="0.56"/><path d="M160,99L173,84L191,85Z" fill="rgb(188, 148, 93)" fill-opacity="0.54"/><path d="M98,122L103,114L118,115Z" fill="rgb(80, 64, 1)" fill-opacity="0.58"/><path d="M86,99L65,106L71,119Z" fill="rgb(166, 158, 56)" fill-opacity="0.62"/><path d="M207,104L194,147L196,109Z" fill="rgb(120, 84, 75)" fill-opacity="0.47"/><path d="M145,119L159,84L141,109Z" fill="rgb(222, 175, 116)" fill-opacity="0.45"/><path d="M166,125L186,115L142,146Z" fill="rgb(45, 13, 4)" fill-opacity="0.40"/><path d="M229,82L229,53L211,90Z" fill="rgb(122, 85, 78)" fill-opacity="0.33"/><path d="M134,22L163,25L151,5Z" fill="rgb(134, 73, 31)" fill-opacity="0.46"/><path d="M210,58L195,31L197,48Z" fill="rgb(223, 186, 132)" fill-opacity="0.63"/><path d="M200,35L213,36L214,40Z" fill="rgb(206, 159, 108)" fill-opacity="0.51"/><path d="M17,45L17,30L38,63Z" fill="rgb(25, 2, 0)" fill-opacity="0.53"/><path d="M208,59L210,55L228,48Z" fill="rgb(234, 199, 143)" fill-opacity="0.49"/><path d="M172,31L198,43L170,70Z" fill="rgb(0, 45, 68)" fill-opacity="0.71"/><path d="M134,137L113,141L124,146Z" fill="rgb(41, 8, 0)" fill-opacity="0.63"/><path d="M112,21L143,61L146,23Z" fill="rgb(0, 43, 72)" fill-opacity="0.59"/><path d="M146,22L191,26L191,38Z" fill="rgb(207, 164, 109)" fill-opacity="0.37"/><path d="M184,86L136,60L198,66Z" fill="rgb(54, 75, 82)" fill-opacity="0.66"/><path d="M145,127L126,127L144,119Z" fill="rgb(86, 57, 11)" fill-opacity="0.58"/><path d="M153,116L152,102L158,115Z" fill="rgb(117, 74, 20)" fill-opacity="0.53"/><path d="M160,102L163,110L146,100Z" fill="rgb(225, 173, 126)" fill-opacity="0.48"/><path d="M81,90L69,87L81,93Z" fill="rgb(241, 200, 136)" fill-opacity="0.56"/><path d="M187,20L185,29L177,21Z" fill="rgb(171, 130, 90)" fill-opacity="0.55"/><path d="M217,63L220,53L217,89Z" fill="rgb(59, 25, 16)" fill-opacity="0.53"/><path d="M77,108L83,106L89,108Z" fill="rgb(255, 232, 175)" fill-opacity="0.52"/><path d="M100,16L105,5L66,29Z" fill="rgb(50, 22, 10)" fill-opacity="0.54"/><path d="M84,136L37,156L96,143Z" fill="rgb(118, 90, 87)" fill-opacity="0.42"/><path d="M76,91L58,122L60,94Z" fill="rgb(53, 34, 29)" fill-opacity="0.53"/><path d="M116,73L73,40L135,57Z" fill="rgb(85, 89, 99)" fill-opacity="0.41"/><path d="M79,111L80,115L65,112Z" fill="rgb(127, 104, 2)" fill-opacity="0.52"/><path d="M48,62L50,52L26,70Z" fill="rgb(34, 4, 1)" fill-opacity="0.61"/><path d="M206,79L203,65L196,75Z" fill="rgb(255, 195, 132)" fill-opacity="0.38"/><path d="M86,90L146,92L149,106Z" fill="rgb(168, 146, 57)" fill-opacity="0.65"/><path d="M26,109L17,103L15,119Z" fill="rgb(109, 55, 44)" fill-opacity="0.51"/><path d="M170,29L150,22L169,25Z" fill="rgb(221, 184, 133)" fill-opacity="0.42"/><path d="M68,78L107,80L53,64Z" fill="rgb(255, 188, 0)" fill-opacity="0.57"/><path d="M20,43L-12,24L-17,69Z" fill="rgb(115, 61, 20)" fill-opacity="0.37"/><path d="M241,26L246,21L242,18Z" fill="rgb(141, 103, 69)" fill-opacity="0.52"/><path d="M118,122L121,137L134,132Z" fill="rgb(200, 150, 113)" fill-opacity="0.49"/><path d="M200,91L190,79L206,88Z" fill="rgb(91, 51, 38)" fill-opacity="0.62"/><path d="M191,24L190,34L195,29Z" fill="rgb(80, 28, 2)" fill-opacity="0.37"/><path d="M-12,119L12,141L-29,151Z" fill="rgb(13, 0, 0)" fill-opacity="0.71"/><path d="M30,95L29,72L41,63Z" fill="rgb(129, 69, 58)" fill-opacity="0.40"/><path d="M74,82L74,88L103,85Z" fill="rgb(8, 12, 20)" fill-opacity="0.47"/><path d="M218,35L227,34L231,38Z" fill="rgb(164, 123, 82)" fill-opacity="0.62"/><path d="M246,112L234,68L247,57Z" fill="rgb(13, 0, 5)" fill-opacity="0.36"/><path d="M136,110L135,105L148,102Z" fill="rgb(129, 75, 51)" fill-opacity="0.49"/><path d="M37,44L33,-13L70,37Z" fill="rgb(95, 50, 28)" fill-opacity="0.54"/><path d="M174,100L172,110L182,100Z" fill="rgb(43, 12, 3)" fill-opacity="0.51"/><path d="M18,134L60,143L92,157Z" fill="rgb(11, 0, 5)" fill-opacity="0.58"/><path d="M112,88L140,89L109,91Z" fill="rgb(55, 38, 16)" fill-opacity="0.60"/><path d="M236,105L255,62L277,102Z" fill="rgb(35, 13, 10)" fill-opacity="0.66"/><path d="M244,-3L222,31L238,39Z" fill="rgb(26, 6, 2)" fill-opacity="0.72"/><path d="M289,121L239,113L281,82Z" fill="rgb(103, 79, 82)" fill-opacity="0.26"/><path d="M124,6L108,13L114,1Z" fill="rgb(103, 60, 42)" fill-opacity="0.57"/><path d="M133,0L170,9L178,2Z" fill="rgb(10, 1, 0)" fill-opacity="0.60"/><path d="M139,127L130,131L140,145Z" fill="rgb(170, 121, 81)" fill-opacity="0.51"/><path d="M74,120L68,114L101,118Z" fill="rgb(217, 198, 107)" fill-opacity="0.53"/><path d="M93,100L117,102L116,114Z" fill="rgb(221, 178, 136)" fill-opacity="0.58"/><path d="M163,26L132,58L207,65Z" fill="rgb(0, 50, 75)" fill-opacity="0.70"/><path d="M112,109L126,113L128,107Z" fill="rgb(139, 96, 33)" fill-opacity="0.58"/><path d="M189,94L179,113L174,111Z" fill="rgb(132, 90, 72)" fill-opacity="0.51"/><path d="M40,111L14,124L39,77Z" fill="rgb(88, 40, 29)" fill-opacity="0.62"/><path d="M204,54L190,56L177,35Z" fill="rgb(0, 33, 56)" fill-opacity="0.49"/><path d="M85,73L57,62L83,61Z" fill="rgb(255, 168, 94)" fill-opacity="0.43"/><path d="M74,137L35,128L46,141Z" fill="rgb(95, 65, 66)" fill-opacity="0.51"/><path d="M40,57L29,50L48,47Z" fill="rgb(130, 75, 50)" fill-opacity="0.54"/><path d="M137,93L141,92L124,92Z" fill="rgb(25, 12, 10)" fill-opacity="0.51"/><path d="M193,142L219,139L222,131Z" fill="rgb(16, 0, 2)" fill-opacity="0.63"/><path d="M90,136L102,131L100,149Z" fill="rgb(46, 16, 4)" fill-opacity="0.48"/><path d="M54,93L75,87L106,90Z" fill="rgb(240, 187, 143)" fill-opacity="0.25"/><path d="M124,19L195,42L90,33Z" fill="rgb(0, 40, 65)" fill-opacity="0.57"/><path d="M220,42L225,55L211,36Z" fill="rgb(146, 105, 66)" fill-opacity="0.47"/><path d="M230,102L220,116L216,99Z" fill="rgb(99, 64, 57)" fill-opacity="0.53"/><path d="M140,9L182,7L160,24Z" fill="rgb(74, 42, 26)" fill-opacity="0.59"/><path d="M212,47L211,61L202,64Z" fill="rgb(213, 176, 119)" fill-opacity="0.37"/><path d="M155,101L138,92L175,102Z" fill="rgb(140, 108, 28)" fill-opacity="0.55"/><path d="M108,72L81,43L61,54Z" fill="rgb(167, 111, 88)" fill-opacity="0.51"/><path d="M52,100L54,86L58,97Z" fill="rgb(213, 140, 105)" fill-opacity="0.47"/><path d="M162,81L92,67L110,82Z" fill="rgb(212, 112, 22)" fill-opacity="0.31"/><path d="M213,47L211,42L245,42Z" fill="rgb(57, 26, 12)" fill-opacity="0.53"/><path d="M212,54L217,50L194,29Z" fill="rgb(170, 132, 86)" fill-opacity="0.69"/><path d="M197,30L208,38L201,38Z" fill="rgb(138, 99, 63)" fill-opacity="0.53"/><path d="M181,27L171,26L175,12Z" fill="rgb(79, 45, 23)" fill-opacity="0.50"/><path d="M70,114L63,111L79,99Z" fill="rgb(174, 171, 64)" fill-opacity="0.50"/><path d="M154,22L142,12L109,20Z" fill="rgb(135, 84, 54)" fill-opacity="0.58"/><path d="M155,130L148,129L151,125Z" fill="rgb(236, 223, 85)" fill-opacity="0.35"/><path d="M191,138L186,149L195,146Z" fill="rgb(129, 99, 98)" fill-opacity="0.47"/><path d="M203,121L203,130L221,102Z" fill="rgb(30, 9, 8)" fill-opacity="0.50"/><path d="M215,93L209,66L200,84Z" fill="rgb(72, 38, 28)" fill-opacity="0.65"/><path d="M225,130L209,125L192,133Z" fill="rgb(94, 67, 66)" fill-opacity="0.53"/><path d="M271,106L227,138L210,171Z" fill="rgb(22, 9, 16)" fill-opacity="0.41"/><path d="M72,27L64,16L78,15Z" fill="rgb(136, 81, 55)" fill-opacity="0.51"/><path d="M18,112L40,130L31,134Z" fill="rgb(81, 50, 52)" fill-opacity="0.49"/><path d="M172,83L185,83L155,86Z" fill="rgb(55, 25, 22)" fill-opacity="0.53"/><path d="M27,107L34,91L31,103Z" fill="rgb(148, 90, 69)" fill-opacity="0.45"/><path d="M244,37L257,27L252,41Z" fill="rgb(80, 52, 43)" fill-opacity="0.50"/><path d="M166,114L171,110L150,114Z" fill="rgb(88, 38, 9)" fill-opacity="0.45"/><path d="M150,108L141,102L150,126Z" fill="rgb(218, 176, 116)" fill-opacity="0.60"/><path d="M277,39L260,64L233,58Z" fill="rgb(91, 75, 79)" fill-opacity="0.40"/><path d="M22,14L-31,24L1,2Z" fill="rgb(41, 11, 0)" fill-opacity="0.56"/><path d="M205,109L213,97L207,95Z" fill="rgb(130, 89, 77)" fill-opacity="0.52"/><path d="M130,67L164,72L150,86Z" fill="rgb(136, 88, 64)" fill-opacity="0.42"/><path d="M213,66L210,70L210,63Z" fill="rgb(254, 201, 145)" fill-opacity="0.46"/><path d="M87,100L111,100L97,97Z" fill="rgb(36, 26, 20)" fill-opacity="0.51"/><path d="M171,90L187,96L192,90Z" fill="rgb(237, 210, 127)" fill-opacity="0.46"/><path d="M63,110L73,128L79,125Z" fill="rgb(151, 105, 88)" fill-opacity="0.58"/><path d="M42,71L57,71L47,62Z" fill="rgb(169, 108, 78)" fill-opacity="0.54"/><path d="M209,96L194,100L213,86Z" fill="rgb(34, 5, 0)" fill-opacity="0.41"/><path d="M186,94L174,94L173,99Z" fill="rgb(229, 207, 81)" fill-opacity="0.54"/><path d="M98,105L111,106L87,106Z" fill="rgb(255, 207, 196)" fill-opacity="0.48"/><path d="M76,67L52,69L66,56Z" fill="rgb(255, 166, 72)" fill-opacity="0.54"/><path d="M198,40L191,39L211,49Z" fill="rgb(223, 183, 130)" fill-opacity="0.50"/><path d="M220,45L220,53L227,50Z" fill="rgb(222, 179, 123)" fill-opacity="0.33"/><path d="M148,84L150,89L142,99Z" fill="rgb(219, 185, 87)" fill-opacity="0.49"/><path d="M133,121L143,121L118,115Z" fill="rgb(192, 158, 71)" fill-opacity="0.51"/><path d="M77,80L61,88L60,72Z" fill="rgb(163, 78, 65)" fill-opacity="0.56"/><path d="M125,132L112,130L93,136Z" fill="rgb(127, 78, 53)" fill-opacity="0.53"/><path d="M233,121L212,111L205,119Z" fill="rgb(31, 8, 5)" fill-opacity="0.58"/><path d="M89,108L101,137L98,111Z" fill="rgb(118, 123, 14)" fill-opacity="0.52"/><path d="M49,-19L83,16L59,24Z" fill="rgb(107, 58, 36)" fill-opacity="0.48"/><path d="M100,26L60,36L65,53Z" fill="rgb(144, 83, 46)" fill-opacity="0.51"/><path d="M64,55L63,49L48,64Z" fill="rgb(106, 42, 19)" fill-opacity="0.44"/><path d="M135,101L143,98L102,100Z" fill="rgb(140, 120, 35)" fill-opacity="0.73"/><path d="M30,133L28,129L0,137Z" fill="rgb(14, 0, 0)" fill-opacity="0.54"/><path d="M82,5L84,10L98,2Z" fill="rgb(50, 21, 10)" fill-opacity="0.54"/><path d="M141,126L148,129L117,136Z" fill="rgb(180, 139, 74)" fill-opacity="0.47"/><path d="M103,126L109,124L113,113Z" fill="rgb(83, 48, 0)" fill-opacity="0.39"/><path d="M112,85L154,83L111,81Z" fill="rgb(77, 33, 37)" fill-opacity="0.40"/><path d="M41,29L34,49L20,46Z" fill="rgb(43, 12, 3)" fill-opacity="0.61"/><path d="M123,109L115,112L127,105Z" fill="rgb(118, 72, 34)" fill-opacity="0.53"/><path d="M109,97L119,97L93,105Z" fill="rgb(98, 98, 23)" fill-opacity="0.43"/><path d="M83,94L93,101L61,100Z" fill="rgb(32, 23, 21)" fill-opacity="0.60"/><path d="M226,41L216,30L225,32Z" fill="rgb(178, 134, 87)" fill-opacity="0.40"/><path d="M104,118L120,120L102,114Z" fill="rgb(64, 46, 5)" fill-opacity="0.50"/><path d="M175,112L170,126L168,102Z" fill="rgb(207, 165, 92)" fill-opacity="0.52"/><path d="M88,73L126,79L102,80Z" fill="rgb(249, 140, 0)" fill-opacity="0.45"/><path d="M45,74L53,73L46,72Z" fill="rgb(222, 159, 133)" fill-opacity="0.50"/><path d="M121,125L124,120L103,121Z" fill="rgb(255, 210, 126)" fill-opacity="0.30"/><path d="M92,113L87,110L89,127Z" fill="rgb(208, 218, 63)" fill-opacity="0.47"/><path d="M155,111L164,106L156,120Z" fill="rgb(191, 145, 89)" fill-opacity="0.49"/><path d="M158,5L173,-33L135,5Z" fill="rgb(14, 2, 0)" fill-opacity="0.54"/><path d="M75,138L58,130L77,125Z" fill="rgb(29, 2, 0)" fill-opacity="0.52"/><path d="M80,123L69,115L78,135Z" fill="rgb(144, 92, 76)" fill-opacity="0.45"/><path d="M101,121L98,133L105,125Z" fill="rgb(177, 184, 50)" fill-opacity="0.44"/><path d="M137,144L127,150L111,134Z" fill="rgb(43, 9, 0)" fill-opacity="0.58"/><path d="M204,7L176,-26L201,30Z" fill="rgb(97, 53, 31)" fill-opacity="0.45"/><path d="M56,98L71,89L61,134Z" fill="rgb(71, 35, 29)" fill-opacity="0.33"/><path d="M231,57L231,41L214,61Z" fill="rgb(60, 30, 24)" fill-opacity="0.50"/><path d="M58,125L66,128L68,120Z" fill="rgb(128, 79, 68)" fill-opacity="0.58"/><path d="M103,16L66,33L107,23Z" fill="rgb(100, 56, 35)" fill-opacity="0.88"/><path d="M262,70L231,73L250,66Z" fill="rgb(16, 3, 4)" fill-opacity="0.59"/><path d="M224,124L221,129L249,124Z" fill="rgb(91, 65, 68)" fill-opacity="0.55"/><path d="M177,40L177,44L181,41Z" fill="rgb(121, 97, 96)" fill-opacity="0.48"/><path d="M94,92L108,94L144,90Z" fill="rgb(214, 202, 94)" fill-opacity="0.30"/><path d="M144,72L77,35L199,67Z" fill="rgb(32, 73, 95)" fill-opacity="0.33"/><path d="M221,26L222,28L228,21Z" fill="rgb(146, 105, 74)" fill-opacity="0.44"/><path d="M107,85L84,83L109,82Z" fill="rgb(55, 47, 50)" fill-opacity="0.54"/><path d="M261,101L224,73L251,85Z" fill="rgb(65, 35, 26)" fill-opacity="0.52"/><path d="M88,33L93,25L72,38Z" fill="rgb(164, 109, 78)" fill-opacity="0.50"/><path d="M168,86L168,91L171,93Z" fill="rgb(52, 7, 0)" fill-opacity="0.50"/><path d="M188,24L189,36L192,22Z" fill="rgb(232, 180, 129)" fill-opacity="0.34"/><path d="M123,95L121,98L141,99Z" fill="rgb(194, 171, 69)" fill-opacity="0.53"/><path d="M120,144L120,134L134,143Z" fill="rgb(52, 17, 4)" fill-opacity="0.49"/><path d="M126,104L116,108L139,104Z" fill="rgb(234, 194, 157)" fill-opacity="0.54"/><path d="M162,21L167,30L151,19Z" fill="rgb(144, 105, 68)" fill-opacity="0.52"/><path d="M209,99L199,116L219,91Z" fill="rgb(128, 90, 79)" fill-opacity="0.56"/><path d="M119,98L115,98L120,95Z" fill="rgb(39, 48, 0)" fill-opacity="0.50"/><path d="M167,117L167,115L144,125Z" fill="rgb(98, 55, 19)" fill-opacity="0.53"/><path d="M106,85L115,85L111,90Z" fill="rgb(231, 196, 123)" fill-opacity="0.46"/><path d="M70,95L68,96L74,96Z" fill="rgb(176, 167, 125)" fill-opacity="0.49"/><path d="M16,133L27,131L-24,105Z" fill="rgb(15, 0, 2)" fill-opacity="0.42"/><path d="M98,87L87,95L91,84Z" fill="rgb(186, 154, 103)" fill-opacity="0.40"/><path d="M73,113L68,123L69,113Z" fill="rgb(227, 186, 148)" fill-opacity="0.41"/><path d="M193,118L187,110L185,128Z" fill="rgb(0, 0, 0)" fill-opacity="0.50"/><path d="M214,97L206,109L214,109Z" fill="rgb(26, 1, 0)" fill-opacity="0.49"/><path d="M93,123L102,139L85,129Z" fill="rgb(38, 24, 0)" fill-opacity="0.40"/><path d="M54,52L53,27L70,30Z" fill="rgb(96, 49, 25)" fill-opacity="0.59"/><path d="M175,135L156,126L187,120Z" fill="rgb(82, 45, 37)" fill-opacity="0.53"/><path d="M174,72L187,91L182,90Z" fill="rgb(116, 92, 55)" fill-opacity="0.57"/><path d="M206,117L191,115L201,107Z" fill="rgb(119, 82, 73)" fill-opacity="0.48"/><path d="M124,128L104,128L119,131Z" fill="rgb(232, 192, 138)" fill-opacity="0.42"/><path d="M22,117L9,104L3,115Z" fill="rgb(29, 7, 11)" fill-opacity="0.48"/><path d="M213,66L216,61L202,30Z" fill="rgb(212, 179, 128)" fill-opacity="0.47"/><path d="M182,85L197,73L161,78Z" fill="rgb(96, 80, 63)" fill-opacity="0.52"/><path d="M217,80L210,96L236,76Z" fill="rgb(100, 64, 55)" fill-opacity="0.50"/><path d="M228,58L258,50L216,69Z" fill="rgb(123, 94, 86)" fill-opacity="0.56"/><path d="M226,24L212,38L223,24Z" fill="rgb(142, 100, 70)" fill-opacity="0.47"/><path d="M205,50L199,50L211,56Z" fill="rgb(243, 214, 163)" fill-opacity="0.51"/><path d="M143,33L112,33L132,53Z" fill="rgb(0, 51, 76)" fill-opacity="0.53"/><path d="M227,75L208,89L212,70Z" fill="rgb(50, 22, 15)" fill-opacity="0.46"/><path d="M170,122L167,125L169,110Z" fill="rgb(217, 180, 120)" fill-opacity="0.53"/><path d="M111,104L118,113L87,105Z" fill="rgb(234, 180, 160)" fill-opacity="0.45"/><path d="M242,63L248,66L252,56Z" fill="rgb(26, 10, 11)" fill-opacity="0.54"/><path d="M188,116L191,117L216,84Z" fill="rgb(33, 12, 7)" fill-opacity="0.44"/><path d="M156,90L154,97L152,72Z" fill="rgb(243, 180, 115)" fill-opacity="0.47"/><path d="M58,10L47,3L57,22Z" fill="rgb(47, 17, 5)" fill-opacity="0.61"/><path d="M102,125L93,127L90,131Z" fill="rgb(25, 18, 2)" fill-opacity="0.52"/><path d="M64,41L66,45L49,55Z" fill="rgb(209, 133, 88)" fill-opacity="0.35"/><path d="M36,94L33,102L57,126Z" fill="rgb(78, 28, 16)" fill-opacity="0.47"/><path d="M106,115L103,112L100,115Z" fill="rgb(81, 67, 0)" fill-opacity="0.51"/><path d="M63,89L63,92L67,93Z" fill="rgb(199, 132, 144)" fill-opacity="0.53"/><path d="M200,21L219,32L234,57Z" fill="rgb(60, 25, 11)" fill-opacity="0.50"/><path d="M85,141L53,130L62,149Z" fill="rgb(93, 64, 59)" fill-opacity="0.53"/><path d="M82,41L85,34L67,43Z" fill="rgb(86, 35, 10)" fill-opacity="0.56"/><path d="M197,95L185,88L186,84Z" fill="rgb(216, 170, 144)" fill-opacity="0.46"/><path d="M14,58L42,67L50,59Z" fill="rgb(30, 5, 2)" fill-opacity="0.55"/><path d="M101,142L111,142L74,155Z" fill="rgb(189, 144, 137)" fill-opacity="0.31"/><path d="M214,40L213,43L205,39Z" fill="rgb(89, 48, 16)" fill-opacity="0.51"/><path d="M134,3L123,0L147,-5Z" fill="rgb(113, 72, 56)" fill-opacity="0.50"/><path d="M156,70L154,94L152,73Z" fill="rgb(243, 147, 79)" fill-opacity="0.32"/><path d="M111,22L91,34L124,69Z" fill="rgb(50, 64, 85)" fill-opacity="0.41"/><path d="M209,125L172,130L187,125Z" fill="rgb(51, 23, 18)" fill-opacity="0.74"/><path d="M89,87L92,83L59,86Z" fill="rgb(24, 7, 19)" fill-opacity="0.38"/><path d="M154,102L172,103L156,107Z" fill="rgb(254, 206, 153)" fill-opacity="0.41"/><path d="M49,111L53,96L48,92Z" fill="rgb(91, 34, 19)" fill-opacity="0.49"/><path d="M31,80L23,88L30,50Z" fill="rgb(65, 20, 10)" fill-opacity="0.77"/><path d="M48,44L40,28L49,28Z" fill="rgb(113, 62, 38)" fill-opacity="0.54"/><path d="M127,122L143,125L132,127Z" fill="rgb(77, 42, 21)" fill-opacity="0.51"/><path d="M122,121L125,128L129,119Z" fill="rgb(150, 130, 12)" fill-opacity="0.46"/><path d="M188,93L198,88L203,78Z" fill="rgb(193, 145, 118)" fill-opacity="0.38"/><path d="M166,99L167,101L161,103Z" fill="rgb(210, 168, 117)" fill-opacity="0.50"/><path d="M106,99L82,108L70,104Z" fill="rgb(212, 190, 103)" fill-opacity="0.48"/><path d="M55,67L50,70L75,33Z" fill="rgb(147, 83, 57)" fill-opacity="0.53"/><path d="M243,12L249,26L240,24Z" fill="rgb(101, 68, 45)" fill-opacity="0.36"/><path d="M213,130L217,126L212,125Z" fill="rgb(26, 0, 0)" fill-opacity="0.53"/><path d="M1,139L13,132L17,139Z" fill="rgb(17, 0, 3)" fill-opacity="0.53"/><path d="M51,62L50,51L59,50Z" fill="rgb(186, 120, 78)" fill-opacity="0.43"/><path d="M0,75L16,64L17,101Z" fill="rgb(49, 5, 0)" fill-opacity="0.47"/><path d="M25,5L33,8L28,36Z" fill="rgb(82, 42, 22)" fill-opacity="0.63"/><path d="M193,24L195,31L203,27Z" fill="rgb(176, 128, 90)" fill-opacity="0.50"/><path d="M156,85L155,70L167,75Z" fill="rgb(147, 58, 27)" fill-opacity="0.39"/><path d="M145,106L126,110L124,114Z" fill="rgb(122, 74, 31)" fill-opacity="0.51"/><path d="M160,122L165,121L167,124Z" fill="rgb(202, 172, 100)" fill-opacity="0.52"/><path d="M13,127L-5,117L-7,129Z" fill="rgb(7, 0, 2)" fill-opacity="0.40"/><path d="M122,87L151,89L136,87Z" fill="rgb(236, 205, 122)" fill-opacity="0.60"/><path d="M126,115L114,110L126,116Z" fill="rgb(236, 181, 141)" fill-opacity="0.50"/><path d="M218,65L212,71L200,56Z" fill="rgb(172, 126, 79)" fill-opacity="0.47"/><path d="M65,45L90,35L57,57Z" fill="rgb(116, 64, 38)" fill-opacity="0.49"/><path d="M137,126L144,118L141,126Z" fill="rgb(79, 35, 15)" fill-opacity="0.50"/><path d="M113,143L117,112L118,133Z" fill="rgb(120, 84, 25)" fill-opacity="0.45"/><path d="M226,88L217,93L231,79Z" fill="rgb(18, 3, 4)" fill-opacity="0.52"/><path d="M82,128L80,126L83,120Z" fill="rgb(14, 9, 0)" fill-opacity="0.52"/><path d="M253,49L249,48L275,44Z" fill="rgb(27, 3, 1)" fill-opacity="0.60"/><path d="M31,127L43,131L31,130Z" fill="rgb(104, 73, 71)" fill-opacity="0.52"/><path d="M196,34L199,35L196,45Z" fill="rgb(234, 208, 160)" fill-opacity="0.55"/><path d="M72,118L59,115L88,118Z" fill="rgb(206, 163, 130)" fill-opacity="0.50"/><path d="M253,100L243,110L224,111Z" fill="rgb(26, 8, 8)" fill-opacity="0.47"/><path d="M124,88L127,91L132,88Z" fill="rgb(46, 27, 21)" fill-opacity="0.51"/><path d="M171,130L179,127L185,121Z" fill="rgb(111, 76, 69)" fill-opacity="0.53"/><path d="M163,114L149,111L162,116Z" fill="rgb(109, 73, 11)" fill-opacity="0.56"/><path d="M146,97L143,103L146,102Z" fill="rgb(89, 43, 0)" fill-opacity="0.45"/><path d="M228,108L226,118L213,107Z" fill="rgb(99, 66, 62)" fill-opacity="0.40"/><path d="M79,103L70,103L94,112Z" fill="rgb(202, 169, 108)" fill-opacity="0.50"/><path d="M98,115L102,120L101,109Z" fill="rgb(240, 196, 129)" fill-opacity="0.39"/><path d="M85,134L95,136L90,131Z" fill="rgb(132, 83, 57)" fill-opacity="0.51"/><path d="M10,13L3,36L20,33Z" fill="rgb(92, 45, 14)" fill-opacity="0.46"/><path d="M24,32L14,14L21,41Z" fill="rgb(33, 9, 1)" fill-opacity="0.49"/><path d="M225,22L220,33L219,31Z" fill="rgb(173, 133, 93)" fill-opacity="0.47"/><path d="M120,129L118,125L114,127Z" fill="rgb(122, 84, 30)" fill-opacity="0.48"/><path d="M196,76L196,59L156,62Z" fill="rgb(23, 62, 80)" fill-opacity="0.48"/><path d="M29,116L33,114L30,104Z" fill="rgb(56, 8, 0)" fill-opacity="0.50"/><path d="M176,106L175,109L167,104Z" fill="rgb(64, 28, 4)" fill-opacity="0.46"/><path d="M63,99L74,96L70,107Z" fill="rgb(20, 16, 17)" fill-opacity="0.45"/><path d="M128,-9L127,17L122,10Z" fill="rgb(9, 0, 0)" fill-opacity="0.41"/><path d="M82,12L103,7L72,12Z" fill="rgb(25, 3, 0)" fill-opacity="0.58"/><path d="M203,94L209,84L208,61Z" fill="rgb(111, 72, 55)" fill-opacity="0.53"/><path d="M92,32L98,28L96,26Z" fill="rgb(184, 118, 82)" fill-opacity="0.53"/><path d="M192,99L202,99L191,100Z" fill="rgb(167, 125, 113)" fill-opacity="0.50"/><path d="M172,99L163,99L173,94Z" fill="rgb(132, 95, 0)" fill-opacity="0.44"/><path d="M193,23L175,17L188,-13Z" fill="rgb(44, 17, 6)" fill-opacity="0.51"/><path d="M165,27L109,23L190,59Z" fill="rgb(0, 40, 65)" fill-opacity="0.60"/><path d="M226,140L205,143L209,175Z" fill="rgb(85, 63, 70)" fill-opacity="0.44"/><path d="M182,96L175,99L217,96Z" fill="rgb(91, 53, 37)" fill-opacity="0.59"/><path d="M209,90L214,68L212,111Z" fill="rgb(39, 12, 5)" fill-opacity="0.39"/><path d="M142,130L151,148L140,152Z" fill="rgb(25, 0, 1)" fill-opacity="0.53"/><path d="M199,64L194,42L201,53Z" fill="rgb(8, 44, 64)" fill-opacity="0.69"/><path d="M145,108L123,119L166,104Z" fill="rgb(205, 152, 103)" fill-opacity="0.53"/><path d="M134,123L129,103L138,127Z" fill="rgb(184, 144, 84)" fill-opacity="0.56"/><path d="M123,123L112,125L104,125Z" fill="rgb(220, 184, 116)" fill-opacity="0.50"/><path d="M151,113L152,120L134,115Z" fill="rgb(205, 159, 105)" fill-opacity="0.56"/><path d="M227,50L223,52L222,47Z" fill="rgb(202, 163, 120)" fill-opacity="0.50"/><path d="M167,25L173,32L161,26Z" fill="rgb(201, 161, 107)" fill-opacity="0.49"/><path d="M211,-7L218,10L211,27Z" fill="rgb(86, 44, 24)" fill-opacity="0.54"/><path d="M119,100L110,94L117,104Z" fill="rgb(206, 218, 72)" fill-opacity="0.43"/><path d="M55,96L46,105L56,101Z" fill="rgb(173, 106, 70)" fill-opacity="0.45"/><path d="M198,135L193,130L191,134Z" fill="rgb(40, 15, 11)" fill-opacity="0.59"/><path d="M128,-5L142,17L134,-8Z" fill="rgb(95, 59, 42)" fill-opacity="0.44"/><path d="M48,92L52,95L49,100Z" fill="rgb(45, 2, 0)" fill-opacity="0.48"/><path d="M180,138L173,159L161,131Z" fill="rgb(33, 6, 0)" fill-opacity="0.53"/><path d="M205,-11L212,15L203,18Z" fill="rgb(46, 14, 0)" fill-opacity="0.58"/><path d="M25,96L30,90L32,79Z" fill="rgb(154, 96, 75)" fill-opacity="0.50"/><path d="M168,111L178,117L170,111Z" fill="rgb(208, 174, 102)" fill-opacity="0.50"/><path d="M94,24L93,15L87,23Z" fill="rgb(52, 19, 5)" fill-opacity="0.58"/><path d="M70,95L68,95L68,97Z" fill="rgb(241, 250, 169)" fill-opacity="0.32"/><path d="M132,89L115,90L149,90Z" fill="rgb(69, 46, 28)" fill-opacity="0.48"/><path d="M185,106L169,127L197,103Z" fill="rgb(60, 29, 21)" fill-opacity="0.71"/><path d="M171,121L167,119L177,115Z" fill="rgb(227, 187, 119)" fill-opacity="0.56"/><path d="M216,39L213,41L197,29Z" fill="rgb(195, 152, 105)" fill-opacity="0.47"/><path d="M70,46L103,61L101,41Z" fill="rgb(97, 89, 94)" fill-opacity="0.33"/><path d="M74,79L56,65L98,75Z" fill="rgb(255, 188, 14)" fill-opacity="0.53"/><path d="M47,69L41,76L47,65Z" fill="rgb(188, 128, 102)" fill-opacity="0.49"/><path d="M99,114L103,113L95,113Z" fill="rgb(221, 212, 136)" fill-opacity="0.51"/><path d="M59,9L70,7L59,42Z" fill="rgb(109, 63, 41)" fill-opacity="0.43"/><path d="M223,63L223,50L227,67Z" fill="rgb(131, 93, 80)" fill-opacity="0.50"/><path d="M232,64L217,70L233,60Z" fill="rgb(132, 100, 90)" fill-opacity="0.60"/><path d="M253,3L235,13L291,23Z" fill="rgb(13, 1, 0)" fill-opacity="0.57"/><path d="M173,117L175,115L165,117Z" fill="rgb(118, 63, 27)" fill-opacity="0.53"/><path d="M201,59L209,32L202,40Z" fill="rgb(187, 145, 96)" fill-opacity="0.48"/><path d="M151,24L150,22L165,17Z" fill="rgb(145, 102, 66)" fill-opacity="0.50"/><path d="M159,116L169,121L163,116Z" fill="rgb(217, 172, 117)" fill-opacity="0.64"/><path d="M102,4L120,1L102,12Z" fill="rgb(87, 51, 38)" fill-opacity="0.53"/><path d="M192,1L208,23L192,18Z" fill="rgb(85, 46, 29)" fill-opacity="0.62"/><path d="M156,8L153,5L137,5Z" fill="rgb(101, 67, 56)" fill-opacity="0.41"/><path d="M38,93L57,79L53,72Z" fill="rgb(110, 51, 34)" fill-opacity="0.52"/><path d="M76,112L94,109L77,111Z" fill="rgb(124, 86, 3)" fill-opacity="0.47"/><path d="M233,80L205,71L216,69Z" fill="rgb(61, 33, 25)" fill-opacity="0.55"/><path d="M214,17L224,8L240,28Z" fill="rgb(57, 22, 9)" fill-opacity="0.50"/><path d="M-19,80L1,77L10,94Z" fill="rgb(90, 33, 16)" fill-opacity="0.53"/><path d="M95,14L76,16L80,12Z" fill="rgb(108, 64, 47)" fill-opacity="0.48"/><path d="M155,127L150,130L148,117Z" fill="rgb(188, 169, 60)" fill-opacity="0.44"/><path d="M54,121L30,72L49,98Z" fill="rgb(122, 65, 48)" fill-opacity="0.51"/><path d="M131,141L132,133L116,140Z" fill="rgb(80, 38, 27)" fill-opacity="0.48"/><path d="M69,115L73,117L75,115Z" fill="rgb(143, 92, 36)" fill-opacity="0.51"/><path d="M74,120L76,116L86,114Z" fill="rgb(238, 197, 163)" fill-opacity="0.59"/><path d="M184,136L180,125L178,136Z" fill="rgb(116, 80, 76)" fill-opacity="0.52"/><path d="M74,126L64,125L77,124Z" fill="rgb(164, 118, 98)" fill-opacity="0.44"/><path d="M33,115L53,116L44,128Z" fill="rgb(83, 31, 20)" fill-opacity="0.61"/><path d="M225,84L218,76L214,81Z" fill="rgb(106, 70, 61)" fill-opacity="0.52"/><path d="M183,32L186,35L186,22Z" fill="rgb(236, 200, 148)" fill-opacity="0.47"/><path d="M228,30L235,46L237,39Z" fill="rgb(85, 53, 40)" fill-opacity="0.47"/><path d="M154,68L151,78L130,63Z" fill="rgb(75, 82, 87)" fill-opacity="0.51"/><path d="M29,42L21,51L31,55Z" fill="rgb(22, 1, 0)" fill-opacity="0.55"/><path d="M218,55L215,56L219,70Z" fill="rgb(63, 31, 19)" fill-opacity="0.52"/><path d="M221,66L210,71L230,64Z" fill="rgb(151, 114, 92)" fill-opacity="0.50"/><path d="M163,117L160,114L172,117Z" fill="rgb(99, 49, 8)" fill-opacity="0.45"/><path d="M212,119L208,115L224,114Z" fill="rgb(19, 1, 0)" fill-opacity="0.66"/><path d="M84,108L92,101L75,101Z" fill="rgb(213, 179, 102)" fill-opacity="0.50"/><path d="M85,136L94,137L100,141Z" fill="rgb(22, 0, 0)" fill-opacity="0.58"/><path d="M70,106L82,109L59,113Z" fill="rgb(151, 155, 34)" fill-opacity="0.46"/><path d="M160,149L148,140L181,126Z" fill="rgb(53, 21, 7)" fill-opacity="0.62"/><path d="M226,20L208,27L220,28Z" fill="rgb(35, 9, 1)" fill-opacity="0.53"/><path d="M118,93L119,101L114,99Z" fill="rgb(108, 121, 0)" fill-opacity="0.46"/><path d="M45,79L42,72L53,73Z" fill="rgb(172, 107, 86)" fill-opacity="0.51"/><path d="M71,50L72,68L74,28Z" fill="rgb(188, 116, 79)" fill-opacity="0.50"/><path d="M203,68L195,77L202,78Z" fill="rgb(210, 161, 109)" fill-opacity="0.51"/><path d="M30,90L19,79L14,96Z" fill="rgb(98, 32, 16)" fill-opacity="0.41"/><path d="M210,16L217,11L214,27Z" fill="rgb(89, 50, 34)" fill-opacity="0.50"/><path d="M205,44L199,31L198,39Z" fill="rgb(127, 88, 49)" fill-opacity="0.46"/><path d="M225,82L228,64L239,83Z" fill="rgb(72, 43, 36)" fill-opacity="0.54"/><path d="M90,-3L41,-4L59,8Z" fill="rgb(78, 38, 19)" fill-opacity="0.60"/><path d="M208,55L202,53L217,65Z" fill="rgb(222, 184, 131)" fill-opacity="0.53"/><path d="M81,94L126,86L66,90Z" fill="rgb(199, 164, 90)" fill-opacity="0.37"/><path d="M94,67L61,61L68,52Z" fill="rgb(234, 129, 83)" fill-opacity="0.39"/><path d="M164,125L153,123L170,134Z" fill="rgb(89, 48, 32)" fill-opacity="0.56"/><path d="M155,87L157,90L173,93Z" fill="rgb(103, 47, 29)" fill-opacity="0.51"/><path d="M197,114L196,114L210,107Z" fill="rgb(152, 115, 103)" fill-opacity="0.50"/><path d="M43,119L43,116L53,127Z" fill="rgb(122, 69, 59)" fill-opacity="0.50"/><path d="M32,10L17,16L21,21Z" fill="rgb(46, 15, 2)" fill-opacity="0.53"/><path d="M100,26L83,34L94,25Z" fill="rgb(190, 132, 98)" fill-opacity="0.42"/><path d="M187,31L189,22L188,8Z" fill="rgb(66, 33, 16)" fill-opacity="0.64"/><path d="M250,46L258,24L237,47Z" fill="rgb(74, 46, 39)" fill-opacity="0.57"/><path d="M224,34L220,31L228,46Z" fill="rgb(161, 122, 86)" fill-opacity="0.48"/><path d="M208,78L208,64L212,71Z" fill="rgb(76, 43, 31)" fill-opacity="0.47"/><path d="M34,132L53,136L34,137Z" fill="rgb(94, 62, 61)" fill-opacity="0.50"/><path d="M78,129L84,134L73,135Z" fill="rgb(84, 45, 6)" fill-opacity="0.57"/><path d="M32,112L9,111L21,114Z" fill="rgb(95, 51, 41)" fill-opacity="0.48"/><path d="M72,16L67,15L86,8Z" fill="rgb(62, 30, 14)" fill-opacity="0.51"/><path d="M113,103L113,104L101,103Z" fill="rgb(146, 96, 56)" fill-opacity="0.50"/><path d="M123,11L123,19L119,21Z" fill="rgb(157, 103, 72)" fill-opacity="0.55"/><path d="M132,84L152,82L154,84Z" fill="rgb(54, 38, 32)" fill-opacity="0.57"/><path d="M60,93L57,92L58,127Z" fill="rgb(113, 54, 34)" fill-opacity="0.62"/><path d="M128,110L128,109L138,110Z" fill="rgb(82, 42, 4)" fill-opacity="0.56"/><path d="M168,94L168,91L181,94Z" fill="rgb(125, 83, 35)" fill-opacity="0.48"/><path d="M242,140L258,101L248,118Z" fill="rgb(82, 56, 53)" fill-opacity="0.42"/><path d="M126,100L125,105L121,104Z" fill="rgb(241, 198, 146)" fill-opacity="0.50"/><path d="M247,64L270,61L257,57Z" fill="rgb(90, 67, 65)" fill-opacity="0.63"/><path d="M200,81L205,77L200,79Z" fill="rgb(73, 25, 2)" fill-opacity="0.49"/><path d="M218,108L220,110L205,113Z" fill="rgb(92, 63, 58)" fill-opacity="0.58"/><path d="M208,70L191,77L208,67Z" fill="rgb(208, 157, 102)" fill-opacity="0.43"/><path d="M117,124L120,126L120,120Z" fill="rgb(253, 204, 178)" fill-opacity="0.51"/><path d="M112,119L96,119L117,116Z" fill="rgb(86, 58, 14)" fill-opacity="0.52"/><path d="M235,82L234,100L246,96Z" fill="rgb(35, 14, 12)" fill-opacity="0.46"/><path d="M232,12L228,-10L207,10Z" fill="rgb(68, 29, 8)" fill-opacity="0.45"/><path d="M50,59L54,63L48,72Z" fill="rgb(106, 49, 22)" fill-opacity="0.46"/><path d="M165,117L179,122L165,120Z" fill="rgb(184, 146, 97)" fill-opacity="0.50"/><path d="M108,77L68,74L95,80Z" fill="rgb(254, 176, 0)" fill-opacity="0.56"/><path d="M204,125L212,124L220,110Z" fill="rgb(29, 7, 5)" fill-opacity="0.53"/><path d="M80,116L73,113L78,113Z" fill="rgb(85, 44, 10)" fill-opacity="0.40"/><path d="M80,117L97,118L91,124Z" fill="rgb(208, 229, 57)" fill-opacity="0.33"/><path d="M180,111L175,107L202,110Z" fill="rgb(105, 63, 48)" fill-opacity="0.37"/><path d="M219,131L207,133L223,136Z" fill="rgb(10, 0, 2)" fill-opacity="0.54"/><path d="M153,79L106,64L122,75Z" fill="rgb(131, 101, 77)" fill-opacity="0.60"/><path d="M221,49L218,45L220,45Z" fill="rgb(53, 10, 0)" fill-opacity="0.55"/><path d="M226,35L223,35L222,41Z" fill="rgb(187, 147, 112)" fill-opacity="0.50"/><path d="M59,36L47,48L48,51Z" fill="rgb(59, 17, 1)" fill-opacity="0.50"/><path d="M157,86L157,90L158,83Z" fill="rgb(239, 148, 105)" fill-opacity="0.46"/><path d="M81,105L80,93L74,95Z" fill="rgb(63, 39, 28)" fill-opacity="0.55"/><path d="M168,93L167,93L168,82Z" fill="rgb(221, 150, 103)" fill-opacity="0.47"/><path d="M111,100L115,98L83,99Z" fill="rgb(67, 49, 33)" fill-opacity="0.68"/><path d="M119,117L108,122L119,114Z" fill="rgb(188, 153, 77)" fill-opacity="0.53"/><path d="M72,118L76,118L71,115Z" fill="rgb(224, 185, 142)" fill-opacity="0.50"/><path d="M132,130L141,112L147,109Z" fill="rgb(142, 109, 52)" fill-opacity="0.58"/><path d="M144,123L134,134L164,105Z" fill="rgb(181, 140, 78)" fill-opacity="0.61"/><path d="M15,125L36,131L-8,106Z" fill="rgb(66, 40, 43)" fill-opacity="0.59"/><path d="M12,107L12,98L-13,110Z" fill="rgb(12, 0, 0)" fill-opacity="0.48"/><path d="M62,29L76,14L60,37Z" fill="rgb(130, 79, 52)" fill-opacity="0.53"/><path d="M194,84L212,98L193,81Z" fill="rgb(71, 36, 21)" fill-opacity="0.54"/><path d="M84,122L83,139L88,121Z" fill="rgb(78, 38, 18)" fill-opacity="0.53"/><path d="M164,109L161,110L168,114Z" fill="rgb(78, 27, 5)" fill-opacity="0.44"/><path d="M217,121L202,138L202,128Z" fill="rgb(88, 58, 56)" fill-opacity="0.45"/><path d="M195,40L194,36L204,44Z" fill="rgb(222, 190, 141)" fill-opacity="0.52"/><path d="M141,75L128,60L110,65Z" fill="rgb(90, 84, 89)" fill-opacity="0.41"/><path d="M140,119L142,107L142,115Z" fill="rgb(227, 171, 139)" fill-opacity="0.47"/><path d="M122,22L121,17L119,18Z" fill="rgb(162, 114, 83)" fill-opacity="0.50"/><path d="M91,103L112,80L92,103Z" fill="rgb(117, 87, 40)" fill-opacity="0.52"/><path d="M4,55L2,45L13,52Z" fill="rgb(103, 57, 29)" fill-opacity="0.48"/><path d="M103,25L126,-4L113,18Z" fill="rgb(94, 55, 37)" fill-opacity="0.51"/><path d="M80,125L74,121L80,123Z" fill="rgb(152, 109, 94)" fill-opacity="0.48"/><path d="M57,65L91,67L89,75Z" fill="rgb(255, 172, 60)" fill-opacity="0.50"/><path d="M136,131L135,135L144,124Z" fill="rgb(199, 168, 84)" fill-opacity="0.48"/><path d="M222,44L206,35L217,42Z" fill="rgb(212, 173, 124)" fill-opacity="0.48"/><path d="M54,86L51,95L49,68Z" fill="rgb(163, 93, 67)" fill-opacity="0.47"/><path d="M209,52L204,46L211,48Z" fill="rgb(220, 189, 141)" fill-opacity="0.49"/><path d="M56,72L47,58L64,87Z" fill="rgb(115, 48, 23)" fill-opacity="0.53"/><path d="M137,118L128,117L140,117Z" fill="rgb(94, 45, 0)" fill-opacity="0.51"/><path d="M214,90L215,80L222,80Z" fill="rgb(110, 76, 68)" fill-opacity="0.50"/><path d="M125,122L134,122L110,120Z" fill="rgb(217, 179, 91)" fill-opacity="0.49"/><path d="M121,134L133,127L125,129Z" fill="rgb(212, 163, 115)" fill-opacity="0.54"/><path d="M134,114L129,110L136,122Z" fill="rgb(210, 159, 107)" fill-opacity="0.49"/><path d="M94,112L93,118L95,117Z" fill="rgb(66, 55, 0)" fill-opacity="0.46"/><path d="M127,115L127,111L130,111Z" fill="rgb(104, 51, 27)" fill-opacity="0.51"/><path d="M99,143L92,136L109,136Z" fill="rgb(53, 18, 2)" fill-opacity="0.53"/><path d="M235,129L236,127L244,129Z" fill="rgb(99, 73, 74)" fill-opacity="0.48"/><path d="M50,81L48,83L48,74Z" fill="rgb(50, 7, 0)" fill-opacity="0.49"/><path d="M93,95L93,92L84,102Z" fill="rgb(68, 48, 20)" fill-opacity="0.50"/><path d="M243,21L241,17L243,24Z" fill="rgb(213, 169, 124)" fill-opacity="0.53"/><path d="M69,88L60,86L77,101Z" fill="rgb(95, 50, 56)" fill-opacity="0.45"/><path d="M81,33L77,37L102,24Z" fill="rgb(195, 135, 99)" fill-opacity="0.41"/><path d="M203,38L207,44L208,43Z" fill="rgb(255, 252, 195)" fill-opacity="0.42"/><path d="M158,95L163,104L152,97Z" fill="rgb(140, 98, 27)" fill-opacity="0.46"/><path d="M156,97L140,96L149,100Z" fill="rgb(202, 187, 65)" fill-opacity="0.40"/><path d="M17,100L25,116L14,112Z" fill="rgb(97, 47, 35)" fill-opacity="0.50"/></svg>
