<svg xmlns="http://www.w3.org/2000/svg" viewBox="0 0 160 256" clip-path="url(#clip)" width="320" height="512"><defs><clipPath id="clip" clipPathUnits="objectBoundingBox"><rect x="0" y="0" width="160" height="256"/></clipPath></defs><rect x="0" y="0" width="160" height="256" fill="rgb(190, 168, 125)"/><path d="M59,63L363,188L-111,130Z" fill="rgb(103, 94, 52)" fill-opacity="0.85"/><path d="M-11,88L20,48L56,134Z" fill="rgb(97, 88, 47)" fill-opacity="0.78"/><path d="M201,236L-135,226L130,170Z" fill="rgb(99, 92, 41)" fill-opacity="0.60"/><path d="M150,60L178,83L138,73Z" fill="rgb(77, 68, 17)" fill-opacity="0.57"/><path d="M117,57L145,104L107,66Z" fill="rgb(89, 77, 28)" fill-opacity="0.53"/><path d="M41,86L-107,-129L221,19Z" fill="rgb(255, 236, 206)" fill-opacity="0.53"/><path d="M166,57L110,7L121,73Z" fill="rgb(243, 218, 186)" fill-opacity="0.63"/><path d="M53,67L124,169L58,49Z" fill="rgb(83, 74, 37)" fill-opacity="0.70"/><path d="M111,63L84,74L110,112Z" fill="rgb(177, 152, 101)" fill-opacity="0.87"/><path d="M31,135L163,159L180,116Z" fill="rgb(63, 61, 35)" fill-opacity="0.65"/><path d="M195,193L131,171L-143,192Z" fill="rgb(161, 142, 91)" fill-opacity="0.92"/><path d="M27,57L10,46L18,80Z" fill="rgb(68, 58, 21)" fill-opacity="0.52"/><path d="M32,75L60,62L67,146Z" fill="rgb(185, 155, 99)" fill-opacity="0.67"/><path d="M-18,-11L16,21L8,82Z" fill="rgb(255, 227, 194)" fill-opacity="0.48"/><path d="M-3,136L-43,169L102,171Z" fill="rgb(250, 222, 182)" fill-opacity="0.35"/><path d="M136,84L196,120L53,112Z" fill="rgb(139, 124, 73)" fill-opacity="0.52"/><path d="M-20,242L121,227L5,170Z" fill="rgb(91, 83, 34)" fill-opacity="0.22"/><path d="M119,93L92,82L132,84Z" fill="rgb(212, 182, 123)" fill-opacity="0.43"/><path d="M29,107L40,94L11,47Z" fill="rgb(26, 29, 12)" fill-opacity="0.29"/><path d="M103,67L94,77L101,57Z" fill="rgb(127, 107, 57)" fill-opacity="0.52"/><path d="M24,156L-2,137L52,144Z" fill="rgb(170, 148, 92)" fill-opacity="0.39"/><path d="M21,105L4,83L10,47Z" fill="rgb(162, 140, 85)" fill-opacity="0.69"/><path d="M84,66L96,114L76,67Z" fill="rgb(129, 112, 62)" fill-opacity="0.76"/><path d="M155,145L143,94L108,49Z" fill="rgb(107, 98, 53)" fill-opacity="0.41"/><path d="M144,80L130,73L168,63Z" fill="rgb(112, 97, 46)" fill-opacity="0.49"/><path d="M101,158L39,91L66,156Z" fill="rgb(137, 125, 75)" fill-opacity="0.54"/><path d="M128,81L130,104L95,69Z" fill="rgb(179, 153, 96)" fill-opacity="0.45"/><path d="M116,120L77,114L106,153Z" fill="rgb(57, 57, 34)" fill-opacity="0.49"/><path d="M29,14L125,11L92,76Z" fill="rgb(237, 212, 179)" fill-opacity="0.71"/><path d="M101,66L94,69L128,75Z" fill="rgb(94, 81, 35)" fill-opacity="0.50"/><path d="M64,95L49,112L82,116Z" fill="rgb(186, 160, 104)" fill-opacity="0.45"/><path d="M188,155L141,182L10,169Z" fill="rgb(207, 181, 132)" fill-opacity="0.39"/><path d="M116,55L120,77L112,57Z" fill="rgb(37, 31, 2)" fill-opacity="0.43"/><path d="M142,228L205,360L-19,247Z" fill="rgb(232, 209, 162)" fill-opacity="0.29"/><path d="M27,86L9,52L22,50Z" fill="rgb(73, 65, 28)" fill-opacity="0.51"/><path d="M30,130L58,157L93,129Z" fill="rgb(100, 93, 54)" fill-opacity="0.47"/><path d="M78,29L35,30L36,23Z" fill="rgb(173, 150, 99)" fill-opacity="0.36"/><path d="M-21,180L-2,118L15,120Z" fill="rgb(167, 149, 92)" fill-opacity="0.48"/><path d="M65,56L56,85L70,77Z" fill="rgb(100, 88, 40)" fill-opacity="0.51"/><path d="M136,251L80,229L190,231Z" fill="rgb(182, 161, 108)" fill-opacity="0.47"/><path d="M4,60L-21,6L44,10Z" fill="rgb(247, 221, 191)" fill-opacity="0.48"/><path d="M-31,113L19,119L8,87Z" fill="rgb(83, 80, 42)" fill-opacity="0.49"/><path d="M86,83L107,98L94,61Z" fill="rgb(219, 189, 137)" fill-opacity="0.40"/><path d="M18,143L36,156L152,160Z" fill="rgb(168, 147, 93)" fill-opacity="0.40"/><path d="M78,134L158,155L166,136Z" fill="rgb(55, 52, 28)" fill-opacity="0.44"/><path d="M64,85L34,64L49,112Z" fill="rgb(197, 161, 105)" fill-opacity="0.42"/><path d="M66,69L84,90L91,82Z" fill="rgb(147, 126, 74)" fill-opacity="0.69"/><path d="M6,68L-10,100L-29,60Z" fill="rgb(92, 81, 26)" fill-opacity="0.45"/><path d="M11,146L-61,178L40,162Z" fill="rgb(234, 209, 181)" fill-opacity="0.37"/><path d="M145,51L185,46L149,46Z" fill="rgb(157, 140, 84)" fill-opacity="0.52"/></svg>
